<?xml version="1.0" encoding="utf-8"?>
<!-- Generator: Adobe Illustrator 16.0.4, SVG Export Plug-In . SVG Version: 6.00 Build 0)  -->
<!DOCTYPE svg PUBLIC "-//W3C//DTD SVG 1.1//EN" "http://www.w3.org/Graphics/SVG/1.1/DTD/svg11.dtd">
<svg version="1.1" id="Layer_1" xmlns="http://www.w3.org/2000/svg" xmlns:xlink="http://www.w3.org/1999/xlink" x="0px" y="0px"
	 width="700px" height="470px" viewBox="0 0 700 470" enable-background="new 0 0 700 470" xml:space="preserve">
<defs>
		<style type="text/css">
			<![CDATA[
			@font-face {
				font-family: Norwester-Regular;
				src: url('../font/norwester.woff');
			}

			.coloring {
				fill: #444;
			}
			]]>
	 </style>
</defs>

	<g>
	<g>
		<path class="coloring" d="M350,15.095L159.558,125.047v17.747h380.886v-17.746L350,15.095z M318.441,83.714
			c0,0.8-0.48,1.28-1.28,1.28h-8c-0.88,0-1.28-0.48-1.28-1.28v-6.4c0-2.08-1.12-3.2-3.2-3.2h-4.16c-2.16,0-3.2,1.12-3.2,3.2v36.481
			c0,2.16,1.12,3.2,3.2,3.2h4.16c2.08,0,3.2-1.04,3.2-3.2v-6.4c0-0.8,0.4-1.28,1.28-1.28h8c0.8,0,1.28,0.48,1.28,1.28v8.641
			c0,7.52-4.08,11.52-11.521,11.52h-8.96c-7.521,0-11.601-4-11.601-11.52V75.074c0-7.521,4.08-11.521,11.601-11.521h8.96
			c7.44,0,11.521,4,11.521,11.521V83.714z M372.041,125.955c0,1.04-0.561,1.6-1.601,1.6H363c-1.039,0-1.6-0.56-1.6-1.6V89.954
			h-0.561l-7.92,36.161c-0.24,0.96-0.8,1.44-1.76,1.44h-3.92c-0.96,0-1.52-0.48-1.76-1.44l-7.92-36.161H337v36.001
			c0,1.04-0.56,1.6-1.6,1.6h-7.36c-1.04,0-1.6-0.56-1.6-1.6V65.154c0-1.04,0.56-1.6,1.6-1.6h10.56c0.96,0,1.52,0.48,1.76,1.44
			l8.88,39.841l8.88-39.841c0.24-0.96,0.8-1.44,1.761-1.44h10.56c1.04,0,1.601,0.56,1.601,1.6V125.955z M412.04,116.035
			c0,7.52-4,11.52-11.52,11.52h-8.961c-7.52,0-11.521-4-11.521-11.52V65.154c0-0.88,0.721-1.6,1.601-1.6h7.681
			c0.88,0,1.6,0.72,1.6,1.6v48.641c0,2.16,1.12,3.2,3.2,3.2h4.16c2.08,0,3.2-1.04,3.2-3.2V65.154c0-0.88,0.72-1.6,1.6-1.6h7.36
			c0.88,0,1.6,0.72,1.6,1.6V116.035z M335.08,396.305h4.64c2.08,0,3.2-1.039,3.2-3.199v-36.961c0-2.08-1.12-3.2-3.2-3.2h-4.64
			c-2.08,0-3.2,1.12-3.2,3.2v36.961C331.88,395.266,333,396.305,335.08,396.305z M159.557,344.95l190.447,109.955l190.439-109.952
			v-17.747H159.557V344.95z M386.76,392.865c0-1.04,0.561-1.6,1.602-1.6h7.68c1.039,0,1.6,0.56,1.6,1.6v3.2h8.721
			c1.039,0,1.6-0.56,1.6-1.601v-14.641l-19.041-6c-0.959-0.319-1.359-0.879-1.359-1.76v-27.84c0-1.041,0.561-1.601,1.6-1.601h27.201
			c1.039,0,1.6,0.56,1.6,1.601v7.359c0,1.04-0.561,1.6-1.6,1.6h-18v12.561l19.039,6c0.961,0.32,1.361,0.881,1.361,1.761v21.921
			c0,7.279-3.92,11.199-11.201,11.199h-9.6c-7.281,0-11.201-3.92-11.201-11.199V392.865z M360.439,346.305
			c0-1.041,0.48-1.601,1.521-1.681l14.72-2c0.801,0,1.281,0.479,1.281,1.28v61.441c0,0.8-0.48,1.279-1.281,1.279h-8.319
			c-0.88,0-1.28-0.479-1.28-1.279v-50.562l-4.96,0.64c-1.04,0.16-1.681-0.399-1.681-1.439V346.305z M321.24,354.145
			c0-7.521,4-11.521,11.521-11.521h8.96c7.521,0,11.52,4,11.52,11.521v40.961c0,7.52-4,11.52-11.52,11.52h-8.96
			c-7.521,0-11.521-4-11.521-11.52V354.145z M281.24,381.425c0-1.521,0.56-2.16,2.08-2.96l19.041-10.24v-11.84
			c0-2.08-1.2-3.201-3.2-3.201h-3.84c-2.16,0-3.2,1.121-3.2,3.201v6.24c0,0.799-0.48,1.279-1.28,1.279h-8.32
			c-0.88,0-1.28-0.48-1.28-1.279v-8.48c0-7.521,4-11.521,11.521-11.521h8.96c7.44,0,11.521,4,11.521,11.521v18.881
			c0,1.52-0.64,2.159-2.16,2.959l-17.84,9.601c-0.8,0.479-1.12,1.04-1.12,1.92v6.96c0,1.041,0.56,1.601,1.6,1.601h8.64v-3.28
			c0-1.04,0.56-1.6,1.6-1.6h7.68c1.04,0,1.6,0.56,1.6,1.6v12.24c0,1.04-0.56,1.6-1.6,1.6H282.84c-1.04,0-1.6-0.56-1.6-1.6V381.425z"
			/>
	</g>
</g>
<rect x="79" y="303.582" class="coloring" width="542" height="8.582"/>
<rect x="79" y="157.836" class="coloring" width="542" height="8.582"/>
<text transform="matrix(0.9873 0 0 1 79.4155 266.5889)" class="coloring" font-family="'Norwester-Regular'" font-size="82.1533">HACK-A-STARTUP</text>
</svg>
