<?xml version="1.0" encoding="utf-8"?>
<!-- Generator: Adobe Illustrator 16.0.4, SVG Export Plug-In . SVG Version: 6.00 Build 0)  -->
<!DOCTYPE svg PUBLIC "-//W3C//DTD SVG 1.1//EN" "http://www.w3.org/Graphics/SVG/1.1/DTD/svg11.dtd">
<svg version="1.1" id="Layer_1" xmlns="http://www.w3.org/2000/svg" xmlns:xlink="http://www.w3.org/1999/xlink" x="0px" y="0px"
	 width="700px" height="470px" viewBox="0 0 700 470" enable-background="new 0 0 700 470" xml:space="preserve">
<g>
	<g>
		<g>
			<path fill="#1C1C1C" d="M350,15.095L159.558,125.047v17.747h380.886v-17.746L350,15.095z M318.441,83.714
				c0,0.8-0.48,1.28-1.28,1.28h-8c-0.88,0-1.28-0.48-1.28-1.28v-6.4c0-2.08-1.12-3.2-3.2-3.2h-4.16c-2.16,0-3.2,1.12-3.2,3.2v36.481
				c0,2.16,1.12,3.2,3.2,3.2h4.16c2.08,0,3.2-1.04,3.2-3.2v-6.4c0-0.8,0.4-1.28,1.28-1.28h8c0.8,0,1.28,0.479,1.28,1.28v8.641
				c0,7.52-4.08,11.52-11.521,11.52h-8.96c-7.521,0-11.601-4-11.601-11.52V75.074c0-7.521,4.08-11.521,11.601-11.521h8.96
				c7.44,0,11.521,4,11.521,11.521V83.714z M372.041,125.955c0,1.04-0.561,1.6-1.602,1.6H363c-1.039,0-1.6-0.56-1.6-1.6V89.954
				h-0.562l-7.92,36.161c-0.24,0.96-0.8,1.44-1.76,1.44h-3.92c-0.96,0-1.52-0.48-1.76-1.44l-7.92-36.161H337v36.001
				c0,1.04-0.56,1.6-1.6,1.6h-7.36c-1.04,0-1.6-0.56-1.6-1.6V65.154c0-1.04,0.56-1.6,1.6-1.6h10.56c0.96,0,1.52,0.48,1.76,1.44
				l8.88,39.841l8.88-39.841c0.239-0.96,0.8-1.44,1.761-1.44h10.561c1.039,0,1.602,0.56,1.602,1.6L372.041,125.955L372.041,125.955z
				 M412.04,116.035c0,7.52-4,11.52-11.521,11.52h-8.961c-7.521,0-11.521-4-11.521-11.52V65.154c0-0.88,0.721-1.6,1.602-1.6h7.682
				c0.88,0,1.6,0.72,1.6,1.6v48.641c0,2.16,1.12,3.2,3.2,3.2h4.16c2.08,0,3.2-1.04,3.2-3.2V65.154c0-0.88,0.72-1.6,1.6-1.6h7.36
				c0.88,0,1.6,0.72,1.6,1.6V116.035z M335.08,396.305h4.64c2.08,0,3.2-1.039,3.2-3.197v-36.963c0-2.078-1.12-3.198-3.2-3.198h-4.64
				c-2.08,0-3.2,1.12-3.2,3.198v36.963C331.88,395.266,333,396.305,335.08,396.305z M159.557,344.95l190.447,109.955
				l190.439-109.952v-17.747H159.557V344.95z M386.76,392.865c0-1.04,0.562-1.602,1.602-1.602h7.682c1.039,0,1.6,0.562,1.6,1.602
				v3.2h8.723c1.039,0,1.6-0.562,1.6-1.603v-14.641l-19.041-6c-0.959-0.319-1.359-0.879-1.359-1.762v-27.84
				c0-1.041,0.562-1.601,1.602-1.601h27.201c1.039,0,1.6,0.56,1.6,1.601v7.359c0,1.04-0.561,1.6-1.6,1.6h-18v12.562l19.039,6
				c0.961,0.32,1.359,0.881,1.359,1.761v21.921c0,7.279-3.92,11.199-11.2,11.199h-9.601c-7.281,0-11.201-3.92-11.201-11.199v-2.56
				L386.76,392.865L386.76,392.865z M360.439,346.305c0-1.041,0.479-1.601,1.521-1.681l14.72-2c0.801,0,1.281,0.479,1.281,1.28
				v61.439c0,0.8-0.48,1.279-1.281,1.279h-8.318c-0.881,0-1.279-0.479-1.279-1.279v-50.562l-4.96,0.64
				c-1.04,0.16-1.683-0.397-1.683-1.438V346.305L360.439,346.305z M321.24,354.145c0-7.521,4-11.521,11.521-11.521h8.96
				c7.521,0,11.521,4,11.521,11.521v40.963c0,7.52-4,11.52-11.521,11.52h-8.96c-7.521,0-11.521-4-11.521-11.52V354.145z
				 M281.24,381.425c0-1.521,0.56-2.16,2.08-2.96l19.041-10.24v-11.84c0-2.08-1.2-3.201-3.2-3.201h-3.84
				c-2.16,0-3.2,1.121-3.2,3.201v6.24c0,0.799-0.48,1.279-1.28,1.279h-8.32c-0.88,0-1.28-0.48-1.28-1.279v-8.48
				c0-7.521,4-11.521,11.521-11.521h8.96c7.44,0,11.521,4,11.521,11.521v18.883c0,1.52-0.64,2.157-2.16,2.959l-17.84,9.601
				c-0.8,0.479-1.12,1.04-1.12,1.92v6.96c0,1.041,0.56,1.603,1.6,1.603h8.64v-3.28c0-1.04,0.56-1.6,1.6-1.6h7.68
				c1.04,0,1.6,0.56,1.6,1.6v12.24c0,1.04-0.56,1.6-1.6,1.6H282.84c-1.04,0-1.6-0.56-1.6-1.6V381.425z"/>
		</g>
	</g>
	<rect x="79" y="303.582" fill="#1C1C1C" width="542" height="8.582"/>
	<rect x="79" y="157.836" fill="#1C1C1C" width="542" height="8.582"/>
	<text transform="matrix(0.9873 0 0 1 79.4155 266.5889)" fill="#1C1C1C" font-family="'Norwester-Regular'" font-size="82.1533">HACK-A-STARTUP</text>
</g>
</svg>
