<?xml version="1.0" encoding="utf-8"?>
<!-- Generator: Adobe Illustrator 16.0.4, SVG Export Plug-In . SVG Version: 6.00 Build 0)  -->
<!DOCTYPE svg PUBLIC "-//W3C//DTD SVG 1.1//EN" "http://www.w3.org/Graphics/SVG/1.1/DTD/svg11.dtd">
<svg version="1.1" id="Layer_1" xmlns="http://www.w3.org/2000/svg" xmlns:xlink="http://www.w3.org/1999/xlink" x="0px" y="0px"
	 width="534.35px" height="296.34px" viewBox="0 0 534.35 296.34" enable-background="new 0 0 534.35 296.34" xml:space="preserve">
<linearGradient id="SVGID_1_" gradientUnits="userSpaceOnUse" x1="-98.6113" y1="148.1699" x2="627.6138" y2="148.1699">
	<stop  offset="0" style="stop-color:#F26B46"/>
	<stop  offset="1" style="stop-color:#EEA848"/>
</linearGradient>
<rect x="-98.611" y="-211.83" display="none" fill="url(#SVGID_1_)" width="726.225" height="720"/>
<g>
	<polygon opacity="0.4" fill-rule="evenodd" clip-rule="evenodd" fill="#FFFFFF" points="0.196,21.305 148.634,54.624 
		148.634,89.015 0,55.867 	"/>
	<polygon opacity="0.4" fill-rule="evenodd" clip-rule="evenodd" fill="#FFFFFF" points="0.196,79.334 148.634,112.653 
		148.634,147.044 0,113.896 	"/>
	<polygon opacity="0.4" fill-rule="evenodd" clip-rule="evenodd" fill="#FFFFFF" points="0.196,139.141 148.634,172.46 
		148.634,206.851 0,173.703 	"/>
	<polygon fill="#FFFFFF" points="0.196,79.867 148.634,54.624 148.634,89.015 0,114.43 	"/>
	<polygon fill="#FFFFFF" points="0.196,138.432 148.634,113.188 148.634,147.58 0,172.995 	"/>
	<polygon fill="#FFFFFF" points="0.196,196.997 148.634,171.754 148.634,206.146 0,231.561 	"/>
	<g>
		<rect x="38.299" y="248.902" fill-rule="evenodd" clip-rule="evenodd" fill="#FFFFFF" width="72.035" height="11.42"/>
		<path fill-rule="evenodd" clip-rule="evenodd" fill="#FFFFFF" d="M38.299,260.322c0,19.892,16.126,36.018,36.018,36.018
			c19.893,0,36.018-16.126,36.018-36.018H38.299z"/>
	</g>
	<polygon fill="#FFFFFF" points="122.641,34.391 0,55.867 0.196,21.305 122.641,0 	"/>
</g>
<g>
	<path fill="#FFFFFF" d="M317.752,149.346c0,6.3-0.951,12.101-2.85,17.4c-1.901,5.301-4.725,9.9-8.475,13.8
		s-8.426,6.952-14.025,9.15c-5.602,2.199-12.052,3.3-19.35,3.3c-7.401,0-13.901-1.102-19.5-3.3
		c-5.602-2.198-10.275-5.25-14.025-9.15s-6.577-8.499-8.475-13.8c-1.901-5.299-2.85-11.1-2.85-17.4v-65.25h23.4v64.35
		c0,3.3,0.525,6.352,1.575,9.15c1.05,2.801,2.524,5.227,4.425,7.275c1.898,2.051,4.174,3.651,6.825,4.8
		c2.648,1.151,5.524,1.725,8.625,1.725c3.099,0,5.949-0.574,8.55-1.725c2.599-1.148,4.849-2.749,6.75-4.8
		c1.898-2.049,3.375-4.475,4.425-7.275c1.05-2.798,1.575-5.85,1.575-9.15v-64.35h23.399V149.346z"/>
	<path fill="#FFFFFF" d="M340.252,84.096h72.149v21.6h-48.75v19.8h46.051v21.6h-46.051v21.6h51.45v21.6h-74.85V84.096z"/>
	<path fill="#FFFFFF" d="M468.8,84.096h19.35l46.2,106.2H507.95l-9.15-22.5h-41.25l-8.85,22.5h-25.801L468.8,84.096z M477.8,114.997
		l-12.9,33h25.95L477.8,114.997z"/>
</g>
</svg>
